<?xml version="1.0" encoding="iso-8859-1"?>
<!-- Uploaded to: SVG Repo, www.svgrepo.com, Generator: SVG Repo Mixer Tools -->
<svg fill="#FFFFFF" height="800px" width="800px" version="1.1" id="Layer_1" xmlns="http://www.w3.org/2000/svg" xmlns:xlink="http://www.w3.org/1999/xlink" 
	 viewBox="0 0 512 512" xml:space="preserve">
<g>
	<g>
		<path d="M437.019,74.981C388.667,26.629,324.38,0,256,0S123.333,26.629,74.981,74.981C26.629,123.333,0,187.62,0,256
			c0,51.582,15.212,101.126,44.038,143.582L0.648,500.825c-2.843,6.632,4.272,13.513,10.815,10.396l96.843-46.115
			C151.658,495.802,202.618,512,256,512c68.38,0,132.667-26.628,181.019-74.981C485.372,388.668,512,324.38,512,256
			S485.372,123.333,437.019,74.981z M256,495.967c-51.553,0-100.69-16.112-142.1-46.596c-2.356-1.735-5.558-2.039-8.199-0.781
			L23.756,487.61l36.766-85.784c1.096-2.558,0.788-5.501-0.816-7.775C31.135,353.5,16.033,305.764,16.033,256
			C16.033,123.682,123.682,16.033,256,16.033S495.967,123.682,495.967,256S388.318,495.967,256,495.967z"/>
	</g>
</g>
<g>
	<g>
		<path d="M397.05,96.066c-3.318-2.931-8.385-2.613-11.315,0.706c-2.93,3.319-2.613,8.385,0.705,11.315
			c42.433,37.451,66.771,91.363,66.771,147.913c0,108.743-88.469,197.211-197.211,197.211
			c-108.743,0-197.211-88.468-197.211-197.211S147.257,58.789,256,58.789c34.673,0,68.768,9.122,98.6,26.379
			c3.833,2.218,8.737,0.907,10.954-2.926s0.908-8.736-2.924-10.954C330.359,52.623,293.487,42.756,256,42.756
			C138.416,42.756,42.756,138.416,42.756,256S138.416,469.244,256,469.244S469.244,373.584,469.244,256
			C469.244,194.852,442.93,136.559,397.05,96.066z"/>
	</g>
</g>
<g>
	<g>
		<path d="M392.149,342.917l-7.689-41.647c-0.595-3.225-3.096-5.762-6.311-6.406l-60.465-12.092
			c-2.628-0.522-5.346,0.299-7.241,2.194l-24.826,24.827c-41.844-18.678-64.966-41.848-85.333-85.484l24.751-24.751
			c1.895-1.895,2.718-4.612,2.192-7.241l-12.092-60.466c-0.643-3.216-3.181-5.716-6.406-6.312l-41.647-7.689
			c-1.07-0.198-2.17-0.175-3.231,0.066c-10.898,2.477-20.843,7.97-28.756,15.884c-13.703,13.703-18.937,33.724-15.134,57.897
			c3.465,22.03,10.454,45.99,19.678,67.467c1.748,4.069,6.463,5.951,10.53,4.202c4.068-1.748,5.949-6.461,4.202-10.53
			c-8.713-20.284-15.308-42.883-18.572-63.631c-3.015-19.171,0.562-33.997,10.633-44.068c5.399-5.4,12.091-9.253,19.436-11.207
			l34.612,6.39l10.187,50.934l-25.652,25.652c-2.349,2.349-3.007,5.903-1.651,8.937c23.32,52.224,50.677,79.559,100.937,100.858
			c3.01,1.273,6.487,0.596,8.797-1.713l25.651-25.652l50.933,10.187l6.391,34.612c-1.953,7.343-5.807,14.035-11.206,19.436
			c-10.072,10.07-24.901,13.648-44.069,10.632c-38.321-6.029-91.477-24.633-125.737-58.757l-0.492-0.493
			c-9.305-9.341-17.968-20.672-25.75-33.68c-2.271-3.799-7.194-5.037-10.995-2.764c-3.8,2.272-5.037,7.196-2.764,10.995
			c8.451,14.128,17.921,26.497,28.178,36.797l0.496,0.494c36.988,36.842,93.768,56.828,134.571,63.246
			c16.27,2.56,33.749,1.36,48.085-7.402c3.563-2.177,6.86-4.779,9.812-7.731c7.915-7.916,13.408-17.86,15.883-28.758
			C392.325,345.087,392.347,343.987,392.149,342.917z"/>
	</g>
</g>
</svg>